<?xml version="1.0" encoding="UTF-8" standalone="no"?>
<svg
   viewBox="0 0 30 30"
   version="1.1"
   id="svg14"
   sodipodi:docname="config_down.svg"
   inkscape:version="1.1.1 (3bf5ae0d25, 2021-09-20, custom)"
   xmlns:inkscape="http://www.inkscape.org/namespaces/inkscape"
   xmlns:sodipodi="http://sodipodi.sourceforge.net/DTD/sodipodi-0.dtd"
   xmlns="http://www.w3.org/2000/svg"
   xmlns:svg="http://www.w3.org/2000/svg"
   xmlns:rdf="http://www.w3.org/1999/02/22-rdf-syntax-ns#"
   xmlns:cc="http://creativecommons.org/ns#"
   xmlns:dc="http://purl.org/dc/elements/1.1/">
  <metadata
     id="metadata20">
    <rdf:RDF>
      <cc:Work
         rdf:about="">
        <dc:format>image/svg+xml</dc:format>
        <dc:type
           rdf:resource="http://purl.org/dc/dcmitype/StillImage" />
      </cc:Work>
    </rdf:RDF>
  </metadata>
  <defs
     id="defs18" />
  <sodipodi:namedview
     pagecolor="#ffffff"
     bordercolor="#666666"
     borderopacity="1"
     objecttolerance="10"
     gridtolerance="10"
     guidetolerance="10"
     inkscape:pageopacity="0"
     inkscape:pageshadow="2"
     inkscape:window-width="1021"
     inkscape:window-height="508"
     id="namedview16"
     showgrid="false"
     inkscape:zoom="31.466667"
     inkscape:cx="10.805085"
     inkscape:cy="19.036017"
     inkscape:window-x="2819"
     inkscape:window-y="3"
     inkscape:window-maximized="1"
     inkscape:current-layer="g12"
     inkscape:pagecheckerboard="0" />
  <g
     transform="translate(-549.72-579.12)"
     id="g12"
     style="opacity:1">
    <path
       d="m3432 1328.36c0 4.418-3.582 8-8 8-4.418 0-8-3.582-8-8 0-4.418 3.582-8 8-8 4.418 0 8 3.582 8 8"
       transform="matrix(1.125 0 0 1.125-3287.28-900.29)"
       id="path2"
       style="fill:#e3e5e7;fill-opacity:1" />
    <path
       id="path4"
       style="color:#000000;fill:#33393f;fill-opacity:1"
       d="M 9 10 L 9 12 L 21 12 L 21 10 L 9 10 z M 9 14 L 9 16 L 21 16 L 21 14 L 9 14 z M 9 18 L 9 20 L 21 20 L 21 18 L 9 18 z "
       transform="translate(549.72,579.12)" />
  </g>
</svg>
